<?xml version="1.0" encoding="utf-8"?>
<!-- Generator: Adobe Illustrator 16.0.0, SVG Export Plug-In . SVG Version: 6.00 Build 0)  -->
<!DOCTYPE svg PUBLIC "-//W3C//DTD SVG 1.1//EN" "http://www.w3.org/Graphics/SVG/1.1/DTD/svg11.dtd">
<svg version="1.1" id="Capa_1" xmlns="http://www.w3.org/2000/svg" xmlns:xlink="http://www.w3.org/1999/xlink" x="0px" y="0px"
	 width="100px" height="181.711px" viewBox="0 0 100 181.711" enable-background="new 0 0 100 181.711" xml:space="preserve">
<g>
	<g>
		<path fill="#F1DEBD" d="M71.936,74.814c3.566,3.432,5.828,6.051,8.389,9.14c2.494,3.009,3.688,7.132,2.957,9.615
			c-0.852,2.904-3.031,3.951-4.64,1.66c-1.366-1.947-2.825-3.759-7.059-8.865c-3.649-4.391-3.443-6.709-1.613-11.386
			C70.513,73.734,71.453,74.116,71.936,74.814z"/>
		<path fill="#F1DEBD" d="M71.971,60.394c3.503,3.42,5.964,6.046,8.458,9.01c2.518,2.989,3.683,7.863,2.952,10.352
			c-0.853,2.903-2.889,2.736-4.675,0.58c-1.416-1.702-2.723-2.956-7.027-7.792c-3.795-4.264-3.432-7.307-1.605-11.985
			C70.615,59.316,71.229,59.776,71.971,60.394z"/>
		<path fill="#F1DEBD" d="M72.075,45.829c3.503,3.428,5.963,6.057,8.46,9.018c2.515,2.985,3.685,7.86,2.949,10.351
			c-0.852,2.904-2.885,2.736-4.676,0.58c-1.412-1.698-2.718-2.955-7.023-7.787c-3.799-4.266-3.435-7.315-1.604-11.99
			C70.723,44.756,71.333,45.221,72.075,45.829z"/>
		<path fill="#F1DEBD" d="M72.182,31.091c3.503,3.432,5.964,6.053,8.457,9.017c2.518,2.986,3.684,7.86,2.952,10.352
			c-0.852,2.905-2.888,2.734-4.679,0.579c-1.413-1.699-2.718-2.958-7.022-7.79c-3.796-4.261-3.436-7.312-1.605-11.987
			C70.826,30.018,71.436,30.482,72.182,31.091z"/>
		<path fill="#F1DEBD" d="M72.285,16.352c3.506,3.428,5.967,6.057,8.461,9.014c2.513,2.986,3.684,7.864,2.949,10.352
			c-0.849,2.905-2.886,2.741-4.676,0.585c-1.412-1.702-2.719-2.959-7.023-7.789c-3.799-4.264-3.435-7.316-1.605-11.99
			C70.933,15.28,71.543,15.74,72.285,16.352z"/>
		<path fill="#F1DEBD" d="M72.392,1.614c3.503,3.424,5.965,6.053,8.457,9.017c2.519,2.987,3.688,7.859,2.953,10.346
			c-0.852,2.907-2.888,2.743-4.676,0.586c-1.412-1.701-2.718-2.962-7.026-7.792c-3.796-4.264-3.436-7.312-1.602-11.985
			C71.04,0.542,71.649,1.002,72.392,1.614z"/>
		<path fill="#F1DEBD" d="M72.428,89.643c2.804,3.026,5.896,6.855,7.259,8.69c1.926,2.586,2.863,9.496-0.265,11.754
			c-2.211,1.594-4.019,1.08-4.444-0.39c-0.998-3.481-3.674-9.113-4.904-11.432c-2.079-3.908-1.684-6.693,0.354-8.969
			C71.016,88.697,71.854,88.877,72.428,89.643z"/>
		<path fill="#F1DEBD" d="M69.367,100.43c1.645,2.344,3.667,6.985,4.705,11.041c0.764,2.988-1.983,9.798-4.88,10.115
			c-3.035,0.335-4.38-0.386-3.471-2.875c0.913-2.486,0.41-8.008-0.096-11.04c-0.454-2.682-0.35-5.528,1.783-7.576
			C68.001,99.481,68.86,99.478,69.367,100.43z"/>
		<path fill="#F1DEBD" d="M64.584,108.941c0.496,2.418,0.603,6.16-0.05,9.763c-1.049,5.846-3.363,9.095-9.677,8.66
			c-1.681-0.121-1.267-1.22-0.874-2.326c1.013-2.827,1.93-5.328,3.634-9.766c1.338-3.499,3.146-5.36,5.408-6.885
			C63.663,107.842,64.323,107.95,64.584,108.941z"/>
		<path fill="#F1DEBD" d="M41.445,127.575c3.899,1.252,9.621,0.231,11.3-3.617c0.546-1.237,2.497-6.024,3.557-9.231
			c0.952-2.89,1.17-3.731-0.439-3.567c-1.602,0.168-4.451,1.22-6.613,3.696c-2.044,2.333-5.404,6.573-8.482,10.357
			C39.937,126.148,40.411,127.161,41.445,127.575z"/>
		<path fill="#F1DEBD" d="M49.902,112.658c-3.018,2.804-6.852,5.893-8.686,7.262c-2.582,1.923-9.495,2.86-11.75-0.264
			c-1.598-2.212-1.088-4.026,0.385-4.451c3.478-0.999,9.117-3.671,11.432-4.905c3.906-2.076,6.691-1.676,8.967,0.354
			C50.851,111.242,50.666,112.084,49.902,112.658z"/>
		<path fill="#F1DEBD" d="M38.795,108.37c-2.343,1.642-6.984,3.667-11.047,4.708c-2.982,0.764-9.795-1.982-10.116-4.879
			c-0.332-3.032,0.385-4.38,2.878-3.475c2.482,0.91,8.008,0.414,11.04-0.096c2.679-0.453,5.522-0.343,7.576,1.787
			C39.736,107.004,39.744,107.863,38.795,108.37z"/>
		<path fill="#F1DEBD" d="M31.29,102.909c-2.418,0.496-6.16,0.606-9.763-0.043c-5.846-1.06-9.092-3.374-8.657-9.682
			c0.117-1.682,1.216-1.271,2.322-0.875c2.829,1.013,5.329,1.93,9.77,3.635c3.496,1.338,5.358,3.146,6.884,5.408
			C32.389,101.989,32.282,102.648,31.29,102.909z"/>
		<path fill="#F1DEBD" d="M30.313,94.821c-2.469-0.007-6.149-0.67-9.545-2.044c-5.5-2.229-8.211-5.17-6.485-11.25
			c0.46-1.628,1.452-0.997,2.454-0.381c2.562,1.569,4.816,2.983,8.814,5.559c3.146,2.028,4.601,4.182,5.625,6.708
			C31.579,94.149,31.344,94.768,30.313,94.821z"/>
		<path fill="#F1DEBD" d="M95.073,33.984c-1.845-0.566-4.448-1.898-6.67-3.697c-3.606-2.915-4.966-5.725-2.294-9.875
			c0.71-1.111,1.309-0.412,1.919,0.271c1.556,1.758,2.921,3.323,5.321,6.154c1.898,2.23,2.494,4.167,2.688,6.287
			C96.168,33.766,95.854,34.175,95.073,33.984z"/>
	</g>
	<g>
		<path fill="#F1DEBD" d="M4.588,179.253c-1.344,0-2.729-0.631-3.443-1.808c-0.504-0.84-0.546-1.721-0.588-2.644
			c0.042-0.84,0.252-1.975,1.428-2.226c0.84,0.545,0.797,1.132,0.966,1.972c0.125,1.345,0.755,2.73,1.89,2.73
			c0.587,0,1.049-0.251,1.553-0.673c0.673-0.461,1.093-1.175,1.345-2.015c0.797-4.074,0.629-8.273,0.335-12.515
			c0.042-0.337,0.042-0.589,0.042-0.84c-0.042-0.335-0.083-0.63-0.083-0.924c-0.125-4.662-0.125-9.197,0.378-13.943
			c0.126-0.125,0.168-0.125,0.168-0.168c0.042-0.042,0.084-0.125,0.127-0.168c0.125-0.167,0.335-0.294,0.713-0.294
			c0.546,0.211,0.756,0.505,1.009,0.883c0.209,2.394,0.042,4.703,0,7.014c-0.127,6.887,0.713,13.772-0.085,20.618
			C9.754,176.816,7.57,179.21,4.588,179.253z"/>
		<path fill="#F1DEBD" d="M40.667,177.445c-0.208-0.504-0.335-1.091-0.503-1.553c-0.629-1.974-1.007-3.948-1.637-5.921
			c-0.337-1.135-0.588-2.269-1.134-3.318h-0.083c-0.084-0.042-0.127-0.042-0.168-0.042h-0.337c-1.343,0.127-2.729,0.294-4.116,0.462
			c-0.923,0.084-1.931,0.252-2.771,0.672c-0.461,0.209-0.629,0.671-0.756,1.303c-0.126,0.378-0.251,0.797-0.251,1.217
			c-0.168,1.555-0.588,3.065-1.05,4.577c-0.294,0.924-0.546,1.722-0.714,2.646c-0.168,0.882-0.546,1.849-1.554,2.394l-0.587,0.252
			l-0.587-0.294l-0.211-0.503v-0.211c0-0.126,0.042-0.21,0.042-0.252c0.126-0.378,0.21-0.715,0.42-1.009
			c0.252-1.008,0.545-2.015,0.84-3.023c0.167-0.503,0.21-1.051,0.378-1.554c0.336-1.763,0.629-3.4,0.966-5.164
			c0.252-1.262,0.378-2.437,0.504-3.738c0.126-0.504,0.084-1.05,0.084-1.553c0.126-1.386,0.252-2.771,0.504-4.074
			c0.251-1.471,0.546-2.94,0.713-4.453c0.294-2.729,1.05-5.375,2.058-7.894c0.167-0.421,0.504-0.673,1.007-0.756
			c0.294,0.083,0.42,0.124,0.546,0.21c0.168,0.043,0.294,0.125,0.42,0.21c0.673,0.546,1.303,1.428,1.177,2.394
			c0.335,2.478,1.302,4.83,2.058,7.181c0.84,2.52,1.848,4.914,2.729,7.434c1.345,3.821,2.73,7.642,3.906,11.507
			c0.294,0.924,0.545,1.68,0.545,2.688v0.21c-0.041,0.42-0.251,1.049-1.007,1.301C41.255,178.537,40.877,177.991,40.667,177.445z
			 M36.679,163.714l-0.253,0.337v-0.086c-0.083-0.462-0.251-0.881-0.419-1.343c-0.21-0.462-0.462-0.967-0.629-1.47
			c-0.169-0.505-0.378-0.967-0.589-1.47c-0.21-0.504-0.378-1.05-0.504-1.639c-0.125-0.756-0.462-1.47-0.756-2.183
			c-0.294-0.757-0.629-1.513-0.756-2.311c-0.125-0.797-0.378-1.596-0.882-2.142c-0.125,0.252-0.209,0.546-0.251,0.799
			c-0.378,1.26-0.462,2.435-0.756,3.696c-0.167,1.301-0.336,2.604-0.546,3.903c-0.294,1.764-0.503,3.571-0.503,5.334
			C32.185,164.974,34.621,164.68,36.679,163.714z"/>
		<path fill="#F1DEBD" d="M63.1,176.648c-0.128,0.882-0.545,1.765-1.388,2.352L61,179.337c-0.504,0.251-0.925,0.377-1.471,0.377
			c-2.101-0.042-3.36-1.849-4.03-3.359c-0.631-2.688-0.967-5.335-1.134-8.021c-0.211-2.688-0.297-5.376-0.507-8.063
			c-0.082-1.091-0.126-2.268-0.082-3.401c0.043-1.553-0.044-3.108,0.043-4.703c0.039-1.555,0.249-3.149,0.713-5.04h0.546
			c0.21,0.127,0.292,0.168,0.378,0.211c0.082,0.043,0.168,0.124,0.336,0.292c0.124,0.422,0.168,0.716,0.168,1.053
			c0.042,0.25,0.042,0.546,0.124,0.838c0.128,3.276,0.085,6.386,0.253,9.618c0.254,4.114,0.464,8.021,0.8,12.094
			c0.292,1.597,0.459,3.276,1.173,4.787c0.378,0.756,0.842,1.345,1.556,1.302c0.335,0,0.631-0.083,0.798-0.251
			c0.796-3.277,0.629-6.678,0.589-10.038c0-1.763-0.171-3.611-0.252-5.416c-0.254-5.124-0.422-10.33,0.42-15.664l0.671-0.505
			l0.756,0.421c0.253,0.713,0.292,1.259,0.336,1.805c0,0.546-0.044,1.092-0.044,1.597c-0.039,2.897-0.039,5.626,0.044,8.565
			c0.085,3.109,0.295,6.258,0.335,9.408C63.604,170.391,63.518,173.499,63.1,176.648z"/>
		<path fill="#F1DEBD" d="M82.083,147.587c-0.627-0.04-1.134,0.041-1.723,0.041c-0.546,0.128-1.13,0.043-1.676,0.043
			c-0.925-0.043-1.514,0-2.354-0.462l-0.336-0.797c0.336-0.253,0.422-0.336,0.503-0.379c0.129-0.083,0.297-0.167,0.465-0.21
			c0.67-0.125,1.344-0.167,2.015-0.21c1.345-0.041,2.646-0.083,3.988-0.083h2.73l-0.167,1.638
			c-0.546,5.459-2.436,10.625-3.445,16.083c-0.378,2.017-0.838,3.99-1.259,6.006c-0.168,0.883-0.421,1.639-0.588,2.479
			c-0.294,1.344-0.757,2.688-1.049,4.073c-0.168,0.671-0.422,1.302-0.546,1.974c0.043,0.083,0.043,0.169,0.043,0.209l-0.339-0.378
			c0.128,0,0.21,0.043,0.296,0.084c0.043,0,0.081,0,0.124,0c0.292,0.043,0.546,0.085,0.882,0.085
			c0.546,0.126,1.052,0.042,1.598,0.042c0.589,0,1.134,0,1.68,0c0.585,0.041,1.173,0.084,1.929,0.295l0.379,0.586
			c-0.546,0.589-0.925,0.883-1.428,0.967c-1.176,0.251-2.435,0.419-3.651,0.505c-0.756,0.083-1.555,0.125-2.354,0.125
			c-0.335,0-0.546,0-0.881-0.042c-0.254-0.083-0.503-0.083-0.714-0.169c-0.335-0.125-0.589-0.377-0.631-0.838
			c0-0.043-0.04-0.17-0.04-0.294c0.125-0.589,0.293-1.135,0.585-1.597c0.885-1.891,1.388-3.948,1.892-5.921
			c1.009-3.696,1.555-7.351,2.268-11.088c0.378-1.932,0.881-3.652,1.259-5.584c0.168-0.967,0.503-1.934,0.632-2.898
			c0.168-0.965,0.417-1.848,0.756-2.855c0.125-0.211,0.211-0.421,0.249-0.672c0.085-0.209,0.085-0.419,0.168-0.63
			C82.965,147.628,82.505,147.587,82.083,147.587z"/>
		<path fill="#F1DEBD" d="M99.054,177.782c0,0.042-0.042,0.126-0.082,0.169c-0.128,0.208-0.338,0.376-0.756,0.335
			c-0.128-0.084-0.128-0.084-0.211-0.084c-0.042-0.043-0.128-0.083-0.168-0.126c-0.209-0.085-0.378-0.252-0.42-0.588
			c-0.378-5.04-0.293-9.995-0.335-15.034c-0.043-2.31-0.043-4.535-0.043-6.847c0.043-3.063,0-6.046,0.167-9.322
			c0.253-0.167,0.336-0.252,0.422-0.294c0.124-0.125,0.335-0.211,0.588-0.211h0.378c0.546,0.464,0.671,0.925,0.671,1.345
			c0.043,0.335,0,0.714,0.086,1.092c0,4.662,0.081,9.238,0.081,13.859c0,5.123,0.125,10.289-0.252,15.537
			C99.097,177.74,99.097,177.74,99.054,177.782z"/>
	</g>
</g>
</svg>
