<?xml version="1.0" encoding="utf-8"?>
<!-- Generator: Adobe Illustrator 16.0.0, SVG Export Plug-In . SVG Version: 6.00 Build 0)  -->
<!DOCTYPE svg PUBLIC "-//W3C//DTD SVG 1.1//EN" "http://www.w3.org/Graphics/SVG/1.1/DTD/svg11.dtd">
<svg version="1.1" id="Capa_1" xmlns="http://www.w3.org/2000/svg" xmlns:xlink="http://www.w3.org/1999/xlink" x="0px" y="0px"
	 width="300px" height="132px" viewBox="0 0 300 132" enable-background="new 0 0 300 132" xml:space="preserve">
<g>
	<path fill="#F1DEBD" d="M149.068,65.056l23.333,7.833c0,0,16.499,4.833,17.333,4.833s8.667-1.333,9.167-1.333
		s7.667-1.667,7.667-2.167s-2-6.832-2.667-7.166s-7.667-3.834-7.667-3.834s-22.5-10.499-23-10.666s-15.666-7.167-15.666-7.167
		l-4.167-2.333c0,0-4.833,8.334-4.833,9S149.068,65.056,149.068,65.056z"/>
	<polygon fill="#F1DEBD" points="113.567,111.389 123.317,113.639 130.817,111.639 136.317,108.889 140.817,102.639 143.067,85.139 
		145.567,72.139 150.567,50.139 152.567,18.389 140.567,9.389 135.317,7.639 134.067,7.639 129.817,13.889 125.067,24.889 
		119.317,43.139 115.067,56.639 112.147,72.705 109.067,82.139 107.567,96.889 	"/>
	<g>
		<path fill="#363332" d="M56.156,88.345c-9.772,0-19.894-0.991-29.889-1.967c-8.451-0.825-16.434-1.606-24.056-1.779l0.048-2.148
			c7.705,0.175,15.726,0.959,24.217,1.79c25.65,2.506,52.177,5.1,70.767-9.448c1.658-1.297,3.218-3.317,4.867-5.456
			c2.974-3.854,6.049-7.84,10.32-8.27l0.217,2.138c-3.352,0.336-6.14,3.951-8.835,7.444c-1.66,2.15-3.374,4.373-5.244,5.836
			C86.686,85.782,71.877,88.345,56.156,88.345z"/>
		<path fill="#363332" d="M190.731,104.794c-6.966,0-30.298-1.571-38.052-21.803c-1.057-2.756-2.678-3.307-4.242-3.838
			c-0.447-0.152-0.869-0.297-1.249-0.472c-1.488-0.687-3.728-1.052-3.75-1.057l0.34-2.121c0.104,0.017,2.551,0.415,4.312,1.226
			c0.316,0.146,0.668,0.263,1.037,0.389c1.748,0.594,4.143,1.406,5.561,5.105c1.836,4.79,9.861,20.421,36.044,20.421
			c33.763-4.229,68.802-8.609,104.776-2.029l-0.387,2.112c-35.648-6.516-70.521-2.159-104.248,2.057L190.731,104.794z"/>
		<path fill="#363332" d="M195.173,72.539c-4.316,0-10.826-0.782-11.808-0.903l0.134-1.066c4.984,0.613,13.395,1.321,14.718,0.599
			c0.471-0.256,0.744-0.554,0.813-0.887c0.103-0.498-0.258-0.992-0.263-0.996l0,0c-0.01,0-5.956-5.376-10.029-5.887
			c-1.723-0.216-3.788-0.546-4.673-0.97c-0.853,0.328-3.677,1.412-6.869,2.571c0.128,2.381,0.396,4.843,1.035,5.056l-0.342,1.02
			c-1.168-0.391-1.57-2.458-1.752-5.692c-3.973,1.428-8.232,2.853-9.838,3.032c-2.522,0.281-3.551-0.969-4.111-1.637
			c-0.108-0.13-0.259-0.31-0.321-0.345h-0.003c-0.684,0-7.575-3.392-11.619-5.416l-0.244-0.12l-1.325-7.75l3.091-8.687l2.11,0.704
			l19.345,9.844c0.436,0.084,2.37,0.506,3.282,1.602c0.427,0.514,0.499,1.831,0.581,5.187c0.013,0.581,0.03,1.304,0.06,2.076
			c3.62-1.319,6.706-2.514,6.772-2.541l0.369-0.143l0.246,0.308c-0.002-0.003-0.002-0.003-0.002-0.003
			c0.046,0,0.835,0.4,4.342,0.838c4.417,0.553,10.429,5.994,10.682,6.227c0.131,0.153,0.731,0.961,0.528,1.938
			c-0.137,0.659-0.592,1.2-1.351,1.615C198.16,72.424,196.828,72.539,195.173,72.539z M161.996,65.376
			c0.424,0,0.712,0.347,1.018,0.713c0.521,0.621,1.248,1.465,3.168,1.257c1.551-0.174,5.898-1.645,9.904-3.089
			c-0.031-0.76-0.055-1.573-0.075-2.436c-0.045-1.848-0.101-4.148-0.34-4.535c-0.62-0.743-2.167-1.144-2.71-1.234l-0.154-0.05
			l-19.342-9.85l-1.037-0.342l-2.646,7.433l1.188,6.936c3.992,1.994,10.317,5.069,11.021,5.197H161.996z"/>
		<path fill="#363332" d="M123.509,110.246l-8.038-2.165l-5.152-13.448l1.838-7.643l0.595-0.174
			c0.062-0.019,5.621-1.653,11.605-3.539l-11.109-7.658l-0.199-6.104l0.059-0.179c0.107-0.324,10.619-32.42,11.352-34.612
			c0.096-0.285,0.295-0.911,0.576-1.785c7.554-23.539,8.482-23.919,9.303-24.253c0.373-0.154,0.749-0.231,1.114-0.231
			c0.993,0,1.702,0.561,2.108,1.087c1.681,0.405,5.479,1.349,6.33,1.776c1.105,0.554,2.005,1.815,2.104,1.956l0.193,0.276v0.335
			c0.016,4.447,0.063,26.728-0.393,28.557c-0.359,1.426-3.209,21.218-4.278,28.723c-0.005,0.166-0.354,6.175-0.63,7.659
			c-0.146,0.769-0.271,1.438-11.71,5.166l9.946,6.859l-1.443,8.06L123.509,110.246z M117.086,106.29l5.929,1.599l12.691-10.153
			l1.057-5.903l-10.167-7.01c-5.426,1.73-10.87,3.354-12.642,3.879l-1.391,5.786L117.086,106.29z M115.361,74.463l11.585,7.989
			c8.958-2.883,11.278-3.968,11.876-4.334c0.204-1.493,0.469-5.596,0.559-7.17c0.167-1.194,3.87-27.203,4.33-29.03
			c0.296-1.34,0.36-17.525,0.33-27.668c-0.296-0.364-0.742-0.827-1.115-1.013c-0.49-0.248-3.578-1.062-6.281-1.709l-0.5-0.118
			l-0.221-0.464l0,0c0,0-0.23-0.428-0.624-0.322c-0.697,0.938-2.705,5.789-8.218,22.97c-0.284,0.886-0.487,1.52-0.585,1.809
			c-0.702,2.104-10.434,31.812-11.288,34.421L115.361,74.463z"/>
		<g>
			<g>
				<path fill="#69473E" d="M201.121,62.445c-23.683-8.633-33.798-14.006-33.798-14.006s-7.597-4.275-7.872-4.504
					c-0.803-0.65-4.107-2.729-4.107-2.729l-1.408-1.146c0,0,0-3.088,0.134-6.444c0.151-3.841,0.906-8.468,0.671-14.909
					c-0.238-6.446-9.506-14.562-17.327-14.103c-7.812,0.462-11.725,12.769-11.725,12.769l-2.88,9.077l-8.326,21.626
					c0,0-5.197,19.264-7.429,30.715c-1.767,9.053-2.79,15.484-2.79,25.49c0,9.998-0.974,15.069,10.43,24.369
					c2.324,1.232,5.075,1.025,7.518,0.326c12.828-6.235,23.121-21.59,23.773-30.412c0.74-9.936,0.713-16.038,1.172-23.968
					c5.637,2.22,16.857,6.56,23.931,8.686c8.931,2.483,23.701,4.378,30.948,4.233c12.086-0.229,15.201-2.062,14.975-7.458
					C216.789,74.642,208.531,65.149,201.121,62.445z M145.086,56.595c0,0-6.228,36.908-7.151,43.589
					c-0.922,6.666-8.479,9.933-17.104,9.933c-8.624,0-10.991-7.683-11.1-13.432c-0.118-5.748,3.771-28.368,4.549-32.392
					c0.826-4.316,13.679-43.58,15.287-47.957c1.611-4.368,4.137-9.196,7.93-9.196c3.795,0,10.019,6.165,11.049,12.723
					c1.032,6.551-0.269,15.042-1.886,24.446C146.363,44.468,145.086,56.595,145.086,56.595z M194.971,73.5
					c-3.223-0.091-23.189-2.865-30.158-5.18c-7.026-2.329-14.151-5.641-14.151-5.641l4.532-18.209c0,0,26.971,15.288,43.356,21.332
					C203.923,69.421,200.054,73.634,194.971,73.5z"/>
			</g>
			<path fill="#69473E" d="M114.683,109.427c0,0,0.918-5.238,2.438-5.153c1.524,0.065,7.658,1.343,7.266,3.196
				c-0.404,1.855-1.065,4.021-1.065,4.021L114.683,109.427z"/>
			<path fill="#69473E" d="M200.22,72.838c0,0-3.038-1.032-2.994-1.704c0.04-0.666,0.789-3.24,1.866-2.843
				c1.073,0.396,2.333,0.948,2.333,0.948L200.22,72.838z"/>
			<path fill="#69473E" d="M191.742,62.059c0,0-0.797,3.148-1.988,2.871c-1.2-0.269-5.985-1.995-5.641-3.098
				c0.335-1.1,0.89-2.36,0.89-2.36L191.742,62.059z"/>
			<path fill="#69473E" d="M176.961,71.512c0,0,0.246-3.24,1.467-3.175c1.228,0.067,6.24,0.94,6.086,2.083
				c-0.133,1.138-0.466,2.476-0.466,2.476L176.961,71.512z"/>
			<path fill="#69473E" d="M178.174,54.94c0,0-0.802,3.148-1.991,2.872c-1.195-0.268-5.982-1.994-5.635-3.098
				c0.332-1.099,0.887-2.358,0.887-2.358L178.174,54.94z"/>
			<path fill="#69473E" d="M160.08,66.945c0,0,0.688-3.182,1.879-2.945c1.21,0.226,6.056,1.775,5.75,2.892
				c-0.294,1.108-0.804,2.387-0.804,2.387L160.08,66.945z"/>
			<path fill="#69473E" d="M110.408,87.032c0,0,5.316,0.136,5.466,1.659c0.157,1.516-0.204,7.776-2.099,7.656
				c-1.883-0.125-4.122-0.453-4.122-0.453L110.408,87.032z"/>
			<path fill="#69473E" d="M139.799,99.312c0,0-5.315,0.085-5.534-1.42c-0.212-1.517-0.114-7.776,1.781-7.75
				c1.879,0.051,4.139,0.282,4.139,0.282L139.799,99.312z"/>
			<path fill="#69473E" d="M142.484,79.704c0,0-5.312,0.09-5.532-1.417c-0.214-1.514-0.117-7.781,1.78-7.749
				c1.879,0.05,4.138,0.282,4.138,0.282L142.484,79.704z"/>
			<path fill="#69473E" d="M111.88,66.106c0,0,5.313,0.108,5.471,1.633c0.152,1.519-0.183,7.776-2.082,7.668
				c-1.88-0.117-4.126-0.444-4.126-0.444L111.88,66.106z"/>
			<path fill="#69473E" d="M145.589,9.123c0,0-1.36,5.783-2.915,5.703c-1.562-0.078-7.744-1.471-7.208-3.521
				c0.572-2.037,1.427-4.436,1.427-4.436L145.589,9.123z"/>
			<path fill="#69473E" d="M146.706,45.035c0,0-4.811-0.868-4.811-2.147c-0.007-1.29,0.876-6.431,2.582-6.075
				c1.701,0.379,3.708,0.981,3.708,0.981L146.706,45.035z"/>
			<path fill="#69473E" d="M123.72,30.243c0,0,4.682,1.408,4.536,2.682c-0.144,1.28-1.596,6.286-3.247,5.739
				c-1.646-0.569-3.57-1.396-3.57-1.396L123.72,30.243z"/>
		</g>
		<path fill="#F1DEBD" d="M137.632,10.619"/>
		<path fill="#363332" d="M151.975,8.777c-0.23-2.574-1.541-4.486-3.187-4.649c-0.686-0.062-3.47-0.019-3.279,3.164
			c0.151,2.535-0.106,2.728-0.146,2.738l-0.672,2.047c0.205-0.059,1.518,0.438,2.88-4.177c0.363-1.235,0.828-1.634,0.997-1.634h0.01
			c0.3,0.029,1.091,0.85,1.256,2.701c0.031,0.348,0.037,0.678,0.038,1.003c0.03,0.034,0.056,0.074,0.084,0.111
			c0.095,0.071,0.175,0.154,0.247,0.245c0.016,0.013,0.026,0.028,0.041,0.042c0.314,0.146,0.531,0.4,0.662,0.697
			c0.191,0.178,0.377,0.364,0.551,0.572c0.135,0.161,0.277,0.315,0.418,0.469C152.02,11.139,152.085,10.016,151.975,8.777z"/>
		<path fill="#363332" d="M137.661,4.811c-0.439-0.822-0.918-1.638-1.747-2.151c-0.877-0.546-1.889-0.684-2.932-0.397
			c-3.204,0.878-3.275,2.742-3.33,4.24l-0.01,0.241c-0.075,1.694,0.056,2.808,0.072,2.923c0.058-0.063,0.856-1.08,1.1-1.232
			c0.126-0.23,0.711-0.711,0.797-0.781c0.052-0.071,0.099-0.146,0.161-0.208c0.003-0.193,0.006-0.391,0.016-0.608l0.012-0.255
			c0.05-1.336,0.065-1.785,1.753-2.246c0.463-0.13,0.854-0.081,1.227,0.147c1.068,0.662,1.59,2.496,1.788,3.359
			C136.626,7.599,137.531,5.086,137.661,4.811z"/>
	</g>
</g>
</svg>
