<?xml version="1.0" encoding="utf-8"?>
<!-- Generator: Adobe Illustrator 16.0.0, SVG Export Plug-In . SVG Version: 6.00 Build 0)  -->
<!DOCTYPE svg PUBLIC "-//W3C//DTD SVG 1.1//EN" "http://www.w3.org/Graphics/SVG/1.1/DTD/svg11.dtd">
<svg version="1.1" id="Capa_1" xmlns="http://www.w3.org/2000/svg" xmlns:xlink="http://www.w3.org/1999/xlink" x="0px" y="0px"
	 width="300px" height="132px" viewBox="0 0 300 132" enable-background="new 0 0 300 132" xml:space="preserve">
<g>
	<path fill="#363332" d="M198.64,68.673l-1.404,1.545c-1.404,1.543-1.291,3.932,0.252,5.336s3.932,1.293,5.336-0.252l1.088-1.197
		l-5.402-4.916L198.64,68.673z"/>
	<path fill="#363332" d="M189.626,54.529l-2.168,2.381c-1.414,1.555-1.307,3.952,0.234,5.356c1.543,1.403,3.939,1.281,5.355-0.273
		l1.07-1.176l-5.25-4.778L189.626,54.529z"/>
	<g>
		<path fill="#363332" d="M112.801,71.457l1.837,1.432c1.837,1.434,4.485,1.104,5.913-0.734c1.433-1.834,1.103-4.484-0.732-5.912
			l-1.423-1.11l-5.009,6.428L112.801,71.457z"/>
		<path fill="#363332" d="M98.49,83.199l2.176,1.695c1.848,1.439,4.506,1.117,5.937-0.715c1.43-1.834,1.093-4.492-0.757-5.934
			l-1.399-1.092L99.578,83.4L98.49,83.199z"/>
		<path fill="#6AB2AB" d="M85.028,79.484l-0.85,1.068l14.312,2.646l1.088,0.201l4.868-6.246l0.352-0.451l-2.728-7.146l10.73,1.9
			l0.586,0.104l5.009-6.428l0.207-0.268l-9.585-15.548l-1.879,2.362c-1.553,3.072-4.521,8.367-9.166,14.327
			C92.434,73.111,87.227,77.685,85.028,79.484z"/>
		<path fill="#F8BEAD" d="M149.667,19.068c-1.084-2.027-5.346-2.63-11.248-2.427c0.532-0.019,1.052-0.03,1.555-0.037
			c1.194,2.428,2.178,4.935,3.05,7.479C147.612,22.395,150.521,20.671,149.667,19.068z"/>
		<path fill="#F8BEAD" d="M120.637,18.548c2.822-0.422,5.599-0.803,8.248-1.116C126.234,17.745,123.461,18.126,120.637,18.548z"/>
		<path fill="#F8BEAD" d="M129.086,17.408c0.623-0.071,1.238-0.142,1.847-0.206C130.324,17.267,129.709,17.336,129.086,17.408z"/>
		<path fill="#F8BEAD" d="M111.985,19.92c2.835-0.468,5.702-0.931,8.522-1.353C117.687,18.991,114.82,19.452,111.985,19.92z"/>
		<path fill="#F8BEAD" d="M112.446,32.315c-0.115,0.03-0.234,0.063-0.345,0.095C112.212,32.379,112.331,32.346,112.446,32.315z"/>
		<path fill="#F8BEAD" d="M136.778,16.717c0.461-0.026,0.915-0.047,1.358-0.065C137.693,16.67,137.239,16.692,136.778,16.717z"/>
		<path fill="#F8BEAD" d="M134.928,16.838c0.513-0.038,1.016-0.072,1.511-0.102C135.943,16.766,135.44,16.8,134.928,16.838z"/>
		<path fill="#F8BEAD" d="M131.011,17.194c1.289-0.136,2.539-0.252,3.743-0.344C133.55,16.942,132.3,17.059,131.011,17.194z"/>
		<path fill="#F8BEAD" d="M109.809,20.282c0.638-0.105,1.279-0.213,1.922-0.319C111.088,20.069,110.448,20.175,109.809,20.282z"/>
		<path fill="#F8BEAD" d="M117.553,31.004c-0.217,0.054-0.436,0.106-0.646,0.158C117.118,31.109,117.335,31.057,117.553,31.004z"/>
		<path fill="#F8BEAD" d="M115.411,31.535c-0.046,0.011-0.095,0.023-0.139,0.033C115.316,31.559,115.365,31.546,115.411,31.535z"/>
		<path fill="#F8BEAD" d="M107.572,20.657c0.688-0.115,1.381-0.231,2.076-0.349C108.953,20.426,108.26,20.542,107.572,20.657z"/>
		<path fill="#F8BEAD" d="M142.993,24.094c-6.691,2.46-16.937,4.841-24.436,6.665C126.06,28.934,136.304,26.551,142.993,24.094z"/>
		<path fill="#F8BEAD" d="M113.797,31.949c-0.122,0.033-0.237,0.062-0.356,0.095C113.56,32.012,113.675,31.982,113.797,31.949z"/>
		<path fill="#F8BEAD" d="M68.467,91.521c0,0.266,0,0.535,0,0.811C68.467,92.056,68.467,91.787,68.467,91.521z"/>
		<path fill="#F8BEAD" d="M68.824,88.902c-0.004,0.172-0.005,0.354-0.008,0.535C68.819,89.255,68.82,89.074,68.824,88.902z"/>
		<path fill="#F8BEAD" d="M68.811,90.164c-0.001,0.217-0.002,0.443-0.002,0.67C68.809,90.605,68.809,90.382,68.811,90.164z"/>
		<path fill="#F8BEAD" d="M68.852,87.765c-0.006,0.123-0.007,0.26-0.01,0.391C68.845,88.025,68.846,87.888,68.852,87.765z"/>
		<path fill="#F8BEAD" d="M56.525,88.636c-0.061-0.752-0.12-1.502-0.181-2.246C56.405,87.134,56.465,87.884,56.525,88.636z"/>
		<path fill="#F8BEAD" d="M68.811,92.902c0.031,5.703,0.189,13.41-0.04,20.129C69,106.316,68.842,98.605,68.811,92.902z"/>
		<path fill="#F8BEAD" d="M68.77,113.044c-0.02,0.6-0.045,1.188-0.071,1.77C68.725,114.232,68.75,113.644,68.77,113.044z"/>
		<path fill="#F8BEAD" d="M60.568,119.742c-2.014-7.676-3.125-19.789-4.042-31.098c1.445,17.828,3.368,37.662,8.56,38.953
			c2.312,0.576,3.249-5.184,3.604-12.656C65.688,116.011,63.027,117.718,60.568,119.742z"/>
		<path fill="#F1DEBD" d="M138.419,16.642c-0.093,0.004-0.188,0.008-0.282,0.01c-0.443,0.019-0.897,0.039-1.358,0.065
			c-0.112,0.006-0.226,0.012-0.34,0.02c-0.495,0.029-0.998,0.063-1.511,0.102c-0.059,0.005-0.115,0.009-0.174,0.013
			c-1.204,0.092-2.454,0.208-3.743,0.344c-0.025,0.002-0.053,0.007-0.078,0.008c-0.608,0.064-1.224,0.135-1.847,0.206
			c-0.066,0.009-0.134,0.016-0.201,0.023c-2.649,0.313-5.426,0.694-8.248,1.116c-0.043,0.008-0.084,0.014-0.129,0.02
			c-2.82,0.422-5.688,0.885-8.522,1.353c-0.085,0.015-0.171,0.028-0.255,0.043c-0.643,0.106-1.284,0.214-1.922,0.319
			c-0.053,0.008-0.106,0.018-0.16,0.026c-0.695,0.117-1.389,0.233-2.076,0.349c-12.188,2.056-19.254,5.47-25.078,9.021
			c0.522,0.105,1.031,0.313,1.479,0.666c1.54,1.197,1.816,3.419,0.614,4.964c-0.182,0.233-0.391,0.426-0.613,0.601
			c3.401,6.062,3.299,13.442-0.905,18.841c-4.207,5.397-11.341,7.299-18.05,5.48c-0.114,0.259-0.251,0.51-0.433,0.743
			c-1.202,1.54-3.425,1.818-4.965,0.615c-0.366-0.284-0.654-0.63-0.875-1.008c-1.915,6.367-3.382,13.937-2.431,25.81
			c0.059,0.744,0.15,1.494,0.15,2.246v0.008c1,11.309,2.057,23.73,4.072,31.406c2.457-2.023,5.148-4.492,8.151-4.492
			c0.003,0,0.003,0,0.003,0s-0.149-0.395-0.146-0.436c0.027-0.582-0.08-1.479-0.08-2.078c0-0.004,0-0.01,0-0.014
			c0-6.719,0.051-14.426,0.021-20.129c0-0.191-0.021-0.385-0.021-0.57c0-0.275,0-0.545,0-0.811c0-0.234,0-0.463,0-0.688
			c0-0.227,0.172-0.453,0.173-0.67c0.001-0.25,0.089-0.488,0.092-0.727c0.002-0.182,0.046-0.363,0.05-0.535
			c0.006-0.262,0.032-0.506,0.039-0.746c0.004-0.131,0.016-0.268,0.021-0.391c0.011-0.355,0.03-0.689,0.047-0.99l0.311-10.535
			l14.726,4.115c0,0,0.401-0.297,1.104-0.871c2.198-1.799,7.406-6.373,12.945-13.479c4.645-5.959,7.613-11.254,9.166-14.327
			c0.891-1.764,1.316-2.801,1.316-2.801l-7.587-13.273l10.14-2.871c0.328-0.104,0.699-0.211,1.094-0.323
			c0.11-0.031,0.229-0.064,0.345-0.095c0.315-0.09,0.646-0.179,0.994-0.271c0.119-0.032,0.234-0.062,0.356-0.095
			c0.468-0.122,0.956-0.249,1.476-0.381c0.044-0.01,0.093-0.022,0.139-0.033c0.479-0.12,0.979-0.245,1.495-0.373
			c0.211-0.052,0.43-0.104,0.646-0.158c0.329-0.079,0.664-0.161,1.005-0.245c7.499-1.824,17.744-3.969,24.436-6.428
			c0.009-0.004,0.021,0.227,0.028,0.227h0.002c-0.872-3-1.855-5.288-3.05-7.716C139.471,16.849,138.951,16.623,138.419,16.642z"/>
		<path fill="#F8BEAD" d="M64.587,60.973c0.182-0.233,0.318-0.484,0.433-0.743c6.709,1.818,13.843-0.083,18.05-5.48
			c4.204-5.398,4.307-12.778,0.905-18.841c0.223-0.175,0.432-0.367,0.613-0.601c1.202-1.545,0.926-3.767-0.614-4.964
			c-0.448-0.353-0.957-0.561-1.479-0.666c-0.867-0.175-1.77-0.021-2.529,0.441c1.542,1.437,2.929,3.006,3.744,4.703L64.017,60.095
			c-1.915-0.383-3.698-1.358-5.493-2.598c-0.402,1.012-0.321,2.151,0.224,3.083c0.221,0.378,0.509,0.724,0.875,1.008
			C61.162,62.791,63.385,62.513,64.587,60.973z"/>
		<path fill="#363332" d="M64.017,60.095l19.692-25.272c-0.815-1.697-2.202-3.267-3.744-4.703c-1.186-1.104-2.464-2.13-3.656-3.058
			c-7.457-5.817-18.385-3.804-24.152,3.598c-5.766,7.4-4.607,18.382,2.85,24.192c1.203,0.938,2.363,1.845,3.518,2.646
			C60.318,58.736,62.102,59.712,64.017,60.095z"/>
	</g>
	<path fill="#749CB2" d="M204.162,54.727c-7.592-6.504-9.576-12.489-10.016-14.232l-0.326-0.278l-6.314,13.597l-0.795,1.71
		l6.012,5.152l0.436,0.37l7.266-2.391l-2.396,10.63l-0.129,0.58l6.188,5.301l0.26,0.223l16.49-12.091l-0.08-0.065l-1.775,1.014
		C218.98,64.245,213.185,62.457,204.162,54.727z"/>
	<path fill="#F8BEAD" d="M238.283,76.242c-0.074-0.379-0.148-0.758-0.221-1.119C238.134,75.488,238.207,75.861,238.283,76.242z"/>
	<path fill="#F8BEAD" d="M237.861,74.111c-0.039-0.186-0.076-0.383-0.115-0.562C237.783,73.73,237.822,73.925,237.861,74.111z"/>
	<path fill="#F8BEAD" d="M237.453,72.142c-0.031-0.146-0.061-0.281-0.092-0.42C237.394,71.861,237.421,71.996,237.453,72.142z"/>
	<path fill="#F8BEAD" d="M237.148,70.761c-0.027-0.125-0.057-0.25-0.084-0.369C237.091,70.511,237.121,70.636,237.148,70.761z"/>
	<path fill="#F8BEAD" d="M249.292,68.732c0.074,0.637,0.152,1.275,0.229,1.914C249.445,70.007,249.367,69.369,249.292,68.732z"/>
	<path fill="#F8BEAD" d="M249.015,66.416c0.08,0.68,0.164,1.361,0.244,2.047C249.179,67.777,249.095,67.095,249.015,66.416z"/>
	<path fill="#F8BEAD" d="M249.541,70.82c0.258,2.162,0.506,4.342,0.74,6.504C250.046,75.162,249.798,72.982,249.541,70.82z"/>
	<path fill="#F8BEAD" d="M251.597,97.4c-0.004,0.535-0.018,1.062-0.037,1.572c-2.479,1.08-5.025,1.945-7.611,2.697
		c-2.193-6.939-4.135-17.598-5.625-25.221c2.488,12.754,6.25,34.029,10.328,32.09C250.728,107.55,251.529,103.314,251.597,97.4z"/>
	<path fill="#F8BEAD" d="M250.279,77.326c0.078,0.701,0.152,1.402,0.223,2.098C250.431,78.728,250.357,78.027,250.279,77.326z"/>
	<path fill="#F8BEAD" d="M176.955,12.558c0,0,0.006,0,0.01,0C176.96,12.558,176.958,12.558,176.955,12.558z"/>
	<path fill="#F8BEAD" d="M172.666,12.723c0.393-0.021,0.789-0.039,1.186-0.06C173.455,12.684,173.058,12.702,172.666,12.723z"/>
	<path fill="#F8BEAD" d="M169.882,12.876c0.654-0.039,1.312-0.074,1.973-0.111C171.195,12.802,170.537,12.837,169.882,12.876z"/>
	<path fill="#F8BEAD" d="M174.878,12.614c0.305-0.013,0.607-0.026,0.91-0.039C175.486,12.588,175.183,12.601,174.878,12.614z"/>
	<path fill="#F8BEAD" d="M182.109,12.323c0.123-0.004,0.25-0.009,0.373-0.014C182.359,12.314,182.232,12.319,182.109,12.323z"/>
	<path fill="#F8BEAD" d="M153.763,14.564c-5.32,0.974-8.982,2.371-9.603,4.453c-0.683,2.284,5.026,3.487,12.474,4.188
		c-0.928-3.051-2.51-5.787-4.416-8.337C152.712,14.764,153.23,14.664,153.763,14.564z"/>
	<path fill="#F8BEAD" d="M180.212,12.392c0.125-0.005,0.25-0.01,0.371-0.013C180.462,12.382,180.337,12.387,180.212,12.392z"/>
	<path fill="#F8BEAD" d="M167.82,13.008c0.566-0.038,1.137-0.074,1.711-0.11C168.957,12.934,168.386,12.97,167.82,13.008z"/>
	<path fill="#F8BEAD" d="M181.394,24.477c-0.23-0.013-0.467-0.024-0.709-0.037C180.927,24.452,181.164,24.464,181.394,24.477z"/>
	<path fill="#F8BEAD" d="M183.777,24.628c-0.127-0.01-0.268-0.02-0.398-0.029C183.509,24.607,183.65,24.618,183.777,24.628z"/>
	<path fill="#F8BEAD" d="M180.05,24.41c-0.279-0.014-0.57-0.026-0.865-0.038C179.48,24.384,179.767,24.397,180.05,24.41z"/>
	<path fill="#F8BEAD" d="M182.646,24.548c-0.178-0.012-0.367-0.022-0.557-0.035C182.279,24.525,182.468,24.536,182.646,24.548z"/>
	<path fill="#F8BEAD" d="M178.72,24.352c-5.705-0.237-13.451-0.436-20.182-0.978C165.265,23.916,173.015,24.114,178.72,24.352z"/>
	<path fill="#F1DEBD" d="M251.56,98.972c0.02-0.51,0.033-1.037,0.037-1.572c0-0.074,0.002-0.152,0.002-0.227
		c0.004-0.459,0.004-0.93,0-1.412c-0.002-0.105-0.004-0.213-0.004-0.318c-0.008-0.496-0.018-1.004-0.031-1.518
		c-0.004-0.061-0.004-0.121-0.006-0.18c-0.037-1.205-0.094-2.453-0.168-3.74c-0.002-0.043-0.006-0.088-0.008-0.131
		c-0.035-0.588-0.076-1.188-0.117-1.789c-0.006-0.086-0.012-0.17-0.018-0.256c-0.043-0.613-0.09-1.234-0.141-1.861
		c-0.002-0.031-0.004-0.062-0.008-0.096c-0.164-2.049-0.361-4.156-0.582-6.293c-0.006-0.051,0.584-0.115,0.578-0.168
		c-0.072-0.695-1.629-1.207,0.371-2.107v-0.002c-2-2.102-1.076-4.33-1.33-6.492c-0.008-0.061-0.311-0.111-0.318-0.17
		c-0.076-0.641-0.303-1.275-0.375-1.912c-0.014-0.088-0.098-0.176-0.107-0.264c-0.082-0.688-0.203-1.371-0.285-2.049
		c-1.352-11.157-4.043-18.135-6.98-23.81c-4.297,4.64-10.982,11.415-13.17,12.374l-5.062-11.049
		c-2.807-0.461-5.479-1.635-7.738-3.571c-2.184-1.872-3.727-4.235-4.627-6.834l-13.779-2.808
		c0.672-2.838,8.156-11.693,11.512-15.658c-5.842-1.851-12.928-3.215-23.477-2.861c-1.072,0.035-2.156,0.073-3.246,0.111
		c-0.123,0.005-0.25,0.01-0.373,0.014c-0.506,0.018-1.014,0.037-1.525,0.056c-0.121,0.003-0.246,0.026-0.371,0.031
		c-1.082,0.04-2.164,0.147-3.248,0.147c-0.004,0-0.006,0-0.006,0c-0.393,0-0.781,0.017-1.17,0.035
		c-0.303,0.014-0.605,0.019-0.91,0.03c-0.342,0.015-0.686,0.028-1.027,0.044c-0.396,0.021-0.793,0.038-1.186,0.059
		c-0.268,0.014-0.539,0.025-0.811,0.04c-0.66,0.036-1.318,0.072-1.973,0.111c-0.117,0.007-0.234,0.015-0.352,0.021
		c-0.574,0.037-1.145,0.072-1.711,0.11c-0.17,0.011-0.336,0.022-0.502,0.033c-0.555,0.04-1.107,0.078-1.652,0.121
		c-0.119,0.01-0.238,0.017-0.357,0.026c-1.373,0.108-2.713,0.224-4.01,0.354c-0.045,0.005-0.088,0.01-0.131,0.014
		c-0.613,0.063-1.217,0.129-1.807,0.196c-0.055,0.008-0.107,0.014-0.164,0.02c-1.896,0.222-3.678,0.476-5.307,0.771
		c-0.043,0.007-0.086,0.015-0.127,0.021c-0.533,0.1-1.061,0.374-1.557,0.479c1.908,2.551,3.449,4.514,4.404,8.514h0.004
		c0.039,0,0.1-0.166,0.143-0.162c0.576,0.053,1.168,0.016,1.764,0.065c0,0,0.012-0.044,0.014-0.042
		c6.732,0.541,14.48,0.719,20.184,0.956c0.156,0.005,0.314,0.002,0.467,0.008c0.295,0.011,0.584,0.02,0.865,0.033
		c0.217,0.01,0.428,0.017,0.635,0.026c0.242,0.012,0.479,0.023,0.709,0.035c0.24,0.013,0.469,0.025,0.695,0.037
		c0.189,0.012,0.379,0.021,0.557,0.033c0.256,0.016,0.494,0.034,0.732,0.051c0.131,0.01,0.271,0.02,0.398,0.029
		c0.352,0.027,0.686,0.057,0.984,0.086l14.061,0.738l-4.795,14.519c0,0,0.035,0.195,0.119,0.523
		c0.439,1.743,2.424,7.729,10.016,14.232c9.023,7.73,14.818,9.519,14.818,9.519l1.775-1.014l13.582-7.754l2.455,13.815
		c0.088,0.328,0.18,0.705,0.271,1.1c0.027,0.119,0.057,0.244,0.084,0.369c0.07,0.305,0.141,0.623,0.213,0.961
		c0.031,0.139,0.061,0.273,0.092,0.42c0.096,0.447,0.193,0.914,0.293,1.406c0.039,0.18,0.076,0.377,0.115,0.562
		c0.066,0.33,0.133,0.664,0.201,1.012c0.072,0.361,0.146,0.74,0.221,1.119c0.014,0.07,0.027,0.141,0.041,0.207
		c1.49,7.623,3.432,18.281,5.625,25.221C246.535,100.917,249.082,100.052,251.56,98.972z"/>
	<path fill="#F9B020" d="M211.47,33.525c-1.242-3.584-1.244-7.614-0.014-11.448c-0.252-0.129-0.496-0.276-0.723-0.47
		c-1.48-1.271-1.654-3.504-0.385-4.987c1.053-1.223,2.746-1.535,4.141-0.905c-1.322,1.733-2.377,3.47-2.85,5.362l24.33,20.848
		c1.734-0.738,3.367-2.051,4.873-3.524c0.686,1.253,0.576,2.846-0.408,3.995c-1.271,1.481-3.502,1.655-4.988,0.383
		c-0.225-0.192-0.408-0.41-0.57-0.641c-3.514,1.763-7.393,2.393-11.045,1.792l5.057,11.05c2.191-0.96,8.865-7.734,13.162-12.373
		c1.48-1.595,2.678-2.938,3.314-3.704c4.986-6.003,4.871-16.588-0.307-24.306c-0.674-1.054-1.463-2.043-2.357-2.953
		c-0.119-0.125-0.258-0.234-0.379-0.357c-0.24-0.23-0.473-0.469-0.729-0.689c-0.014-0.012-0.029-0.02-0.043-0.031
		c-0.152-0.137-0.287-0.285-0.445-0.416c-8.867-7.473-24.703-3.736-30.744,3.537c-0.279,0.336-0.676,0.805-1.156,1.373
		c-3.355,3.965-10.84,12.82-11.512,15.658L211.47,33.525z"/>
	<path fill="#F8BEAD" d="M234.876,42.138c0.162,0.23,0.346,0.448,0.57,0.641c1.486,1.272,3.717,1.099,4.988-0.383
		c0.984-1.149,1.094-2.742,0.408-3.995c-1.506,1.474-3.139,2.786-4.873,3.524l-24.33-20.848c0.473-1.893,1.527-3.629,2.85-5.362
		c-1.395-0.63-3.088-0.317-4.141,0.905c-1.27,1.483-1.096,3.717,0.385,4.987c0.227,0.193,0.471,0.341,0.723,0.47
		c-1.23,3.834-1.229,7.864,0.014,11.448c0.9,2.599,2.441,4.962,4.625,6.834c2.26,1.937,4.932,3.11,7.736,3.57
		C227.484,44.53,231.363,43.9,234.876,42.138z"/>
</g>
</svg>
