<?xml version="1.0" encoding="utf-8"?>
<!-- Generator: Adobe Illustrator 16.0.0, SVG Export Plug-In . SVG Version: 6.00 Build 0)  -->
<!DOCTYPE svg PUBLIC "-//W3C//DTD SVG 1.1//EN" "http://www.w3.org/Graphics/SVG/1.1/DTD/svg11.dtd">
<svg version="1.1" id="Capa_1" xmlns="http://www.w3.org/2000/svg" xmlns:xlink="http://www.w3.org/1999/xlink" x="0px" y="0px"
	 width="300px" height="132px" viewBox="0 0 300 132" enable-background="new 0 0 300 132" xml:space="preserve">
<g>
	<g>
		<g>
			
				<rect x="67.551" y="12.663" transform="matrix(-0.9626 0.271 -0.271 -0.9626 228.6704 89.7509)" fill-rule="evenodd" clip-rule="evenodd" fill="#FFFFFF" width="81.175" height="96.002"/>
			
				<rect x="71.139" y="18.208" transform="matrix(-0.9626 0.271 -0.271 -0.9626 222.9931 76.745)" fill-rule="evenodd" clip-rule="evenodd" fill="#F1DEBD" width="70.117" height="71.125"/>
		</g>
	</g>
	<g>
		<path fill="#363332" d="M118.889,33.095l-12.722,49.454c-1.62,6.301,1.83,12.82,7.713,14.559l97.971,28.943
			c5.881,1.738,11.963-1.963,13.584-8.264l12.723-49.451L118.889,33.095z"/>
		<g>
			<path fill="#363332" d="M188.148,38.418l0.047,0.012l-3.488-11.31c-0.158-0.521-0.039-1.101,0.314-1.499s0.887-0.557,1.381-0.408
				l-3.275-0.969c0.451,0.133,0.809,0.496,0.955,0.973L188.148,38.418z"/>
			<path fill="#363332" d="M174.119,34.271l0.047,0.016l-3.484-11.31c-0.162-0.522-0.043-1.103,0.314-1.501
				c0.355-0.397,0.885-0.557,1.381-0.408l-3.279-0.97c0.451,0.133,0.811,0.496,0.959,0.975L174.119,34.271z"/>
			<path fill="#363332" d="M160.095,30.128l0.045,0.013l-3.486-11.308c-0.164-0.523-0.039-1.101,0.312-1.501
				c0.355-0.399,0.885-0.556,1.383-0.409l-3.277-0.966c0.447,0.131,0.809,0.493,0.953,0.971L160.095,30.128z"/>
			<path fill="#363332" d="M202.175,42.56l0.047,0.016l-3.488-11.31c-0.162-0.522-0.041-1.1,0.314-1.5
				c0.355-0.398,0.885-0.557,1.385-0.408l-3.279-0.969c0.447,0.132,0.809,0.494,0.955,0.972L202.175,42.56z"/>
			<path fill="#363332" d="M146.067,25.983l0.045,0.016l-3.485-11.31c-0.162-0.522-0.042-1.101,0.313-1.501
				c0.353-0.4,0.884-0.556,1.379-0.409l-3.277-0.969c0.451,0.133,0.81,0.496,0.956,0.974L146.067,25.983z"/>
			<path fill="#363332" d="M230.23,50.85l0.047,0.015l-3.486-11.31c-0.16-0.521-0.041-1.101,0.314-1.5
				c0.354-0.399,0.881-0.556,1.381-0.408l-3.277-0.971c0.449,0.134,0.809,0.495,0.953,0.973L230.23,50.85z"/>
			<path fill="#363332" d="M132.082,21.852L128.75,11.04c-0.01,0.009-0.021,0.013-0.035,0.018l3.324,10.782L132.082,21.852z"/>
			<path fill="#363332" d="M216.203,46.705l0.045,0.014l-3.486-11.309c-0.16-0.521-0.041-1.101,0.316-1.501
				c0.354-0.398,0.885-0.555,1.381-0.408l-3.279-0.97c0.451,0.135,0.809,0.496,0.959,0.975L216.203,46.705z"/>
			<path fill="#363332" d="M150.689,41.735c-0.112-0.537,0.057-1.097,0.447-1.458l9.427-8.753l-0.424-1.384l-0.045-0.013
				l0.135,0.438c0.176,0.571,0.012,1.203-0.412,1.599l-10.131,9.401c-0.293,0.274-0.679,0.361-1.057,0.316l2.872,0.85
				C151.104,42.541,150.786,42.2,150.689,41.735z"/>
			<path fill="#363332" d="M122.634,33.446c-0.11-0.538,0.058-1.097,0.449-1.458l9.427-8.752l-0.428-1.385l-0.043-0.012l0.135,0.438
				c0.173,0.572,0.011,1.202-0.412,1.6l-10.131,9.402c-0.293,0.273-0.679,0.359-1.057,0.315l2.874,0.849
				C123.048,34.253,122.732,33.911,122.634,33.446z"/>
			<path fill="#363332" d="M164.718,45.878c-0.117-0.537,0.055-1.095,0.445-1.457l9.428-8.753l-0.426-1.381l-0.047-0.016
				l0.135,0.439c0.178,0.572,0.016,1.202-0.41,1.598l-10.127,9.403c-0.299,0.272-0.682,0.358-1.062,0.316l2.875,0.849
				C165.132,46.687,164.816,46.345,164.718,45.878z"/>
			<path fill="#363332" d="M136.662,37.591c-0.115-0.538,0.059-1.096,0.448-1.461l9.428-8.75l-0.426-1.381l-0.045-0.016l0.132,0.438
				c0.177,0.57,0.015,1.204-0.41,1.599l-10.131,9.401c-0.294,0.273-0.68,0.36-1.056,0.317l2.87,0.85
				C137.077,38.396,136.757,38.056,136.662,37.591z"/>
			<path fill="#363332" d="M178.744,50.023c-0.115-0.537,0.059-1.096,0.447-1.457l9.43-8.754l-0.426-1.383l-0.047-0.012l0.135,0.437
				c0.176,0.572,0.012,1.203-0.41,1.599l-10.133,9.402c-0.295,0.273-0.678,0.361-1.057,0.316l2.873,0.848
				C179.16,50.831,178.839,50.49,178.744,50.023z"/>
			<path fill="#363332" d="M206.8,58.313c-0.115-0.539,0.055-1.097,0.443-1.461l9.432-8.749l-0.428-1.385l-0.045-0.014l0.135,0.438
				c0.18,0.574,0.018,1.204-0.412,1.6l-10.129,9.401c-0.299,0.273-0.68,0.361-1.061,0.315l2.877,0.85
				C207.214,59.119,206.894,58.778,206.8,58.313z"/>
			<path fill="#363332" d="M220.826,62.455c-0.113-0.535,0.059-1.094,0.447-1.458l9.43-8.75l-0.426-1.383l-0.047-0.015l0.135,0.438
				c0.176,0.571,0.014,1.203-0.41,1.6l-10.133,9.4c-0.293,0.274-0.676,0.361-1.057,0.318l2.873,0.848
				C221.238,63.264,220.921,62.923,220.826,62.455z"/>
			<path fill="#363332" d="M192.771,54.167c-0.115-0.536,0.055-1.094,0.445-1.458l9.43-8.752l-0.424-1.382l-0.047-0.016l0.133,0.44
				c0.178,0.57,0.014,1.202-0.41,1.597l-10.129,9.405c-0.293,0.271-0.68,0.358-1.057,0.316l2.873,0.848
				C193.185,54.976,192.869,54.634,192.771,54.167z"/>
			<path fill="#363332" d="M234.855,66.601c-0.117-0.539,0.055-1.096,0.445-1.459l4.834-4.488l0.018-0.069l-6.301,5.849
				c-0.299,0.273-0.68,0.361-1.059,0.316l2.875,0.85C235.267,67.408,234.947,67.068,234.855,66.601z"/>
			<path fill="#363332" d="M122.608,18.644l-0.099,0.379l9.529,2.817l-3.324-10.782C125.838,12.46,123.514,15.118,122.608,18.644z"
				/>
			<path fill="#363332" d="M131.762,23.877c0.423-0.397,0.585-1.027,0.412-1.6l-0.135-0.438l-9.529-2.817l-3.621,14.072l1.686,0.5
				c0.378,0.044,0.764-0.042,1.057-0.315L131.762,23.877z"/>
			<path fill="#363332" d="M137.649,38.702l10.753,3.177c0.074,0.022,0.149-0.003,0.228,0.004l-11.157-3.294
				C137.536,38.62,137.58,38.683,137.649,38.702z"/>
			<path fill="#363332" d="M142.94,13.188c-0.355,0.4-0.476,0.979-0.313,1.501l3.485,11.31l13.983,4.129l-4.07-13.2
				c-0.145-0.478-0.506-0.84-0.953-0.971l-10.752-3.178C143.824,12.633,143.293,12.788,142.94,13.188z"/>
			<path fill="#363332" d="M159.818,32.165c0.424-0.396,0.588-1.027,0.412-1.599l-0.135-0.438l-13.983-4.129l0.426,1.381
				l-9.428,8.75c-0.39,0.365-0.563,0.923-0.448,1.461c0.095,0.465,0.415,0.806,0.811,0.998l11.157,3.294
				c0.378,0.045,0.764-0.042,1.057-0.316L159.818,32.165z"/>
			<path fill="#363332" d="M165.708,46.992l10.746,3.176c0.076,0.021,0.152-0.006,0.229,0.004l-11.154-3.295
				C165.593,46.911,165.636,46.973,165.708,46.992z"/>
			<path fill="#363332" d="M170.996,21.477c-0.357,0.398-0.477,0.979-0.314,1.501l3.484,11.31l13.982,4.131l-4.066-13.201
				c-0.146-0.477-0.504-0.84-0.955-0.973l-10.75-3.176C171.88,20.92,171.351,21.079,170.996,21.477z"/>
			<path fill="#363332" d="M187.873,40.453c0.422-0.396,0.586-1.026,0.41-1.599l-0.135-0.437l-13.982-4.131l0.426,1.381
				l-9.428,8.753c-0.391,0.362-0.562,0.92-0.445,1.457c0.098,0.467,0.414,0.809,0.811,0.999l11.154,3.295
				c0.379,0.045,0.762-0.043,1.057-0.316L187.873,40.453z"/>
			<path fill="#363332" d="M193.761,55.28l10.748,3.175c0.076,0.023,0.15-0.003,0.227,0.004l-11.15-3.293
				C193.648,55.198,193.691,55.26,193.761,55.28z"/>
			<path fill="#363332" d="M199.048,29.766c-0.355,0.4-0.477,0.978-0.314,1.5l3.488,11.31l13.98,4.13l-4.064-13.199
				c-0.15-0.479-0.508-0.84-0.959-0.975l-10.746-3.174C199.933,29.209,199.404,29.367,199.048,29.766z"/>
			<path fill="#363332" d="M215.925,48.742c0.43-0.396,0.592-1.025,0.412-1.6l-0.135-0.438l-13.98-4.13l0.424,1.382l-9.43,8.752
				c-0.391,0.364-0.561,0.922-0.445,1.458c0.098,0.467,0.414,0.809,0.814,0.999l11.15,3.293c0.381,0.046,0.762-0.042,1.061-0.315
				L215.925,48.742z"/>
			<path fill="#363332" d="M221.816,63.569l10.75,3.176c0.076,0.023,0.152-0.004,0.227,0.004l-11.154-3.295
				C221.701,63.487,221.746,63.549,221.816,63.569z"/>
			<path fill="#363332" d="M227.105,38.055c-0.355,0.399-0.475,0.979-0.314,1.5l3.486,11.31l11.502,3.397l0.098-0.381
				c1.619-6.302-1.83-12.82-7.713-14.559l-5.678-1.676C227.986,37.499,227.458,37.655,227.105,38.055z"/>
			<path fill="#363332" d="M240.152,60.584l1.627-6.322l-11.502-3.397l0.426,1.383l-9.43,8.75c-0.389,0.364-0.561,0.923-0.447,1.458
				c0.096,0.468,0.412,0.809,0.812,0.999l11.154,3.295c0.379,0.045,0.76-0.043,1.059-0.316L240.152,60.584z"/>
			<path fill="#F3EFEF" d="M123.625,34.559l10.748,3.176c0.076,0.022,0.152-0.004,0.229,0.005l-11.154-3.296
				C123.512,34.477,123.557,34.537,123.625,34.559z"/>
			<path fill="#F1DEBD" d="M146.067,25.983l-4.069-13.199c-0.146-0.478-0.505-0.841-0.956-0.974l-4.85-1.434
				c-2.579-0.761-5.176-0.429-7.442,0.663l3.332,10.812L146.067,25.983z"/>
			<path fill="#F1DEBD" d="M145.789,28.021c0.425-0.395,0.587-1.028,0.41-1.599l-0.132-0.438l-13.985-4.132l0.428,1.385
				l-9.427,8.752c-0.392,0.361-0.56,0.92-0.449,1.458c0.099,0.465,0.414,0.807,0.814,0.997l11.154,3.296
				c0.376,0.043,0.762-0.044,1.056-0.317L145.789,28.021z"/>
			<path fill="#F3EFEF" d="M151.679,42.847l10.75,3.176c0.072,0.021,0.15-0.004,0.225,0.006l-11.152-3.296
				C151.564,42.766,151.609,42.826,151.679,42.847z"/>
			<path fill="#F1DEBD" d="M156.966,17.332c-0.352,0.4-0.477,0.978-0.312,1.501l3.486,11.308l13.979,4.131l-4.062-13.198
				c-0.148-0.479-0.508-0.842-0.959-0.975l-10.748-3.176C157.851,16.776,157.322,16.933,156.966,17.332z"/>
			<path fill="#F1DEBD" d="M173.843,36.309c0.426-0.396,0.588-1.025,0.41-1.598l-0.135-0.439l-13.979-4.131l0.424,1.384
				l-9.427,8.753c-0.391,0.361-0.56,0.921-0.447,1.458c0.097,0.465,0.415,0.806,0.812,0.997l11.152,3.296
				c0.381,0.042,0.764-0.044,1.062-0.316L173.843,36.309z"/>
			<path fill="#F3EFEF" d="M179.732,51.135l10.752,3.178c0.076,0.021,0.152-0.002,0.229,0.006l-11.156-3.299
				C179.619,51.053,179.666,51.114,179.732,51.135z"/>
			<path fill="#F1DEBD" d="M185.021,25.621c-0.354,0.398-0.473,0.979-0.314,1.499l3.488,11.31l13.98,4.13l-4.066-13.199
				c-0.146-0.478-0.508-0.84-0.955-0.972l-10.752-3.176C185.908,25.064,185.375,25.223,185.021,25.621z"/>
			<path fill="#F1DEBD" d="M201.898,44.597c0.424-0.395,0.588-1.026,0.41-1.597l-0.133-0.44l-13.98-4.13l0.426,1.383l-9.43,8.754
				c-0.389,0.361-0.562,0.92-0.447,1.457c0.096,0.467,0.416,0.808,0.812,0.996l11.156,3.299c0.377,0.042,0.764-0.045,1.057-0.316
				L201.898,44.597z"/>
			<path fill="#F3EFEF" d="M207.789,59.426l10.75,3.176c0.074,0.021,0.15-0.005,0.227,0.005l-11.152-3.298
				C207.677,59.344,207.72,59.403,207.789,59.426z"/>
			<path fill="#F1DEBD" d="M213.078,33.909c-0.357,0.4-0.477,0.979-0.316,1.501l3.486,11.309l13.982,4.131l-4.068-13.201
				c-0.145-0.478-0.504-0.839-0.953-0.973l-10.75-3.175C213.962,33.354,213.431,33.511,213.078,33.909z"/>
			<path fill="#F1DEBD" d="M229.955,52.888c0.424-0.396,0.586-1.028,0.41-1.6l-0.135-0.438l-13.982-4.131l0.428,1.385l-9.432,8.749
				c-0.389,0.364-0.559,0.922-0.443,1.461c0.094,0.465,0.414,0.806,0.812,0.995l11.152,3.298c0.381,0.043,0.764-0.044,1.057-0.318
				L229.955,52.888z"/>
			<path fill="#F1DEBD" d="M240.134,60.653l-4.834,4.488c-0.391,0.363-0.562,0.92-0.445,1.459c0.092,0.467,0.412,0.807,0.812,0.998
				l2.49,0.736L240.134,60.653z"/>
		</g>
		<polygon fill="#F1DEBD" points="237.828,69.617 118.56,34.381 118.979,32.749 238.248,67.986 		"/>
		<g>
			<g>
				<path fill="#F1DEBD" d="M132.559,96.402l3.373-13.102c0.081-0.314,0.026-0.607-0.119-0.65l-0.526-0.154
					c-0.144-0.043-0.332,0.178-0.413,0.494l-3.371,13.102c-0.08,0.309-0.025,0.605,0.12,0.648l0.525,0.154
					C132.293,96.937,132.479,96.712,132.559,96.402z"/>
				<path fill="#F1DEBD" d="M160.753,104.732l3.373-13.102c0.08-0.314,0.025-0.605-0.121-0.648l-0.523-0.154
					c-0.146-0.045-0.332,0.176-0.412,0.492l-3.373,13.102c-0.08,0.311-0.023,0.604,0.119,0.648l0.525,0.154
					C160.486,105.267,160.673,105.042,160.753,104.732z"/>
				<path fill="#F1DEBD" d="M188.865,113.035l3.371-13.098c0.08-0.316,0.025-0.607-0.121-0.652l-0.521-0.152
					c-0.148-0.045-0.334,0.176-0.414,0.49l-3.373,13.102c-0.078,0.311-0.025,0.607,0.121,0.65l0.523,0.152
					C188.595,113.572,188.785,113.349,188.865,113.035z"/>
			</g>
		</g>
		<line fill="#F1DEBD" x1="122.268" y1="19.973" x2="241.535" y2="55.21"/>
		<g>
			<path fill="#F1DEBD" d="M228.296,80.685l-105.935-31.3c-0.293-0.086-0.564-0.028-0.605,0.13l-0.145,0.56
				c-0.04,0.159,0.168,0.356,0.46,0.444l105.934,31.297c0.295,0.086,0.566,0.029,0.605-0.127l0.146-0.561
				C228.798,80.97,228.591,80.771,228.296,80.685z"/>
			<path fill="#F1DEBD" d="M225.292,92.361L119.356,61.062c-0.293-0.086-0.563-0.031-0.604,0.127l-0.146,0.563
				c-0.04,0.157,0.167,0.354,0.459,0.438l105.936,31.302c0.297,0.086,0.564,0.029,0.607-0.127l0.145-0.564
				C225.794,92.644,225.585,92.449,225.292,92.361z"/>
			<path fill="#F1DEBD" d="M222.304,103.984L116.367,72.683c-0.294-0.086-0.564-0.027-0.605,0.131l-0.145,0.561
				c-0.04,0.158,0.165,0.357,0.457,0.443l105.937,31.299c0.297,0.088,0.566,0.027,0.607-0.129l0.143-0.562
				C222.802,104.269,222.597,104.07,222.304,103.984z"/>
			<path fill="#F1DEBD" d="M161.259,55.029L124.065,44.04c-0.524-0.153-1.063,0.177-1.206,0.736l-0.567,2.201
				c-0.144,0.56,0.161,1.14,0.685,1.296l37.193,10.988c0.525,0.154,1.066-0.175,1.211-0.738l0.564-2.199
				C162.089,55.765,161.783,55.185,161.259,55.029z"/>
			<path fill="#F1DEBD" d="M155.238,78.423l-37.192-10.988c-0.522-0.154-1.062,0.178-1.208,0.738l-0.564,2.197
				c-0.143,0.562,0.16,1.141,0.684,1.293l37.195,10.992c0.521,0.152,1.064-0.176,1.209-0.736l0.564-2.199
				C156.07,79.162,155.763,78.58,155.238,78.423z"/>
			<path fill="#F1DEBD" d="M145.866,63.016l-24.414-7.212c-0.522-0.155-1.062,0.174-1.207,0.734l-0.566,2.201
				c-0.144,0.562,0.161,1.142,0.685,1.298l24.414,7.212c0.524,0.154,1.065-0.176,1.211-0.736l0.566-2.201
				C146.699,63.751,146.391,63.17,145.866,63.016z"/>
		</g>
	</g>
</g>
</svg>
